# xmcd CD database file
#
# Track frame offsets:
#	150
#	19601
#	35348
#	48491
#	61334
#	72800
#	81608
#	103009
#	115027
#	132444
#	147287
#	164674
#	178720
#	194392
#	207823
#	217280
#	229995
#
# Disc length: 3491 seconds
#
# Revision: 1
# Processed by: cddbd v1.4PL0 Copyright (c) Steve Scherf et al.
# Submitted via: CDex 1.50
#
DISCID=030da111
DTITLE=Reverend Gary Davis - Pure Religion and Bad Company
DYEAR=1991
DGENRE=Blues
TTITLE0=Pure Religion
TTITLE1=Mountain Jack
TTITLE2=Right Now
TTITLE3=Buck Dance
TTITLE4=Candy Man
TTITLE5=Devil's Dream
TTITLE6=Moon Goes Down
TTITLE7=Cocaine Blues
TTITLE8=Runnin To The Judgement
TTITLE9=Hesitation Blues
TTITLE10=Bad Company
TTITLE11=I Didn't Want To Join The Band
TTITLE12=Evening Sun Goes Down
TTITLE13=Seven Sisters
TTITLE14=My Heart Is Fixed
TTITLE15=Time Is Drawing Near
TTITLE16=Crucifixion
EXTD=YEAR: 1991
EXTT0=
EXTT1=
EXTT2=
EXTT3=
EXTT4=
EXTT5=
EXTT6=
EXTT7=
EXTT8=
EXTT9=
EXTT10=
EXTT11=
EXTT12=
EXTT13=
EXTT14=
EXTT15=
EXTT16=
PLAYORDER=
